<?xml version="1.0" standalone="no"?>
<!DOCTYPE svg PUBLIC "-//W3C//DTD SVG 20010904//EN"
 "http://www.w3.org/TR/2001/REC-SVG-20010904/DTD/svg10.dtd">
<svg version="1.0" xmlns="http://www.w3.org/2000/svg"
 width="300.000000pt" height="300.000000pt" viewBox="0 0 300.000000 300.000000"
 preserveAspectRatio="xMidYMid meet">
<metadata>
Created by potrace 1.10, written by Peter Selinger 2001-2011
</metadata>
<g transform="translate(0.000000,300.000000) scale(0.100000,-0.100000)"
fill="#000000" stroke="none">
<path d="M1434 2768 c-52 -28 -186 -123 -199 -141 -8 -12 -15 -38 -15 -58 0
-45 -8 -54 -31 -33 -17 15 -21 14 -64 -10 -25 -15 -54 -37 -65 -48 -16 -17
-23 -19 -32 -10 -18 18 -45 15 -68 -8 -27 -27 -25 -56 7 -86 l26 -24 -22 -31
c-14 -19 -21 -40 -18 -55 3 -15 0 -21 -7 -17 -6 4 -58 38 -116 75 -124 81
-143 87 -177 61 -27 -19 -123 -161 -169 -247 -23 -44 -24 -52 -12 -74 7 -14
72 -63 143 -110 317 -207 382 -249 412 -268 18 -10 61 -37 97 -59 36 -21 66
-45 66 -53 0 -8 -8 -26 -18 -40 -10 -15 -22 -35 -25 -44 -5 -15 -44 -37 -132
-76 -5 -3 -2 4 8 15 17 20 17 21 -8 27 -14 4 -25 11 -25 16 0 14 34 12 48 -2
9 -9 12 -8 12 4 0 10 14 20 38 26 31 8 20 10 -76 13 l-113 4 -17 -35 c-32 -66
-136 -96 -196 -56 -28 18 -34 36 -13 36 8 0 22 9 32 20 14 15 21 17 31 9 37
-31 98 26 75 70 -14 25 -56 38 -75 22 -10 -8 -17 -6 -31 9 -10 11 -26 20 -37
20 -29 0 -21 15 21 38 63 36 129 27 176 -24 14 -15 25 -35 25 -45 0 -17 10
-19 112 -19 67 0 108 4 102 9 -5 5 -18 11 -29 13 -11 2 -19 10 -17 17 2 9 -3
9 -16 2 -10 -6 -28 -7 -40 -4 l-21 5 22 19 22 19 -32 27 c-65 57 -133 106
-175 127 -24 11 -66 37 -94 57 -27 20 -60 40 -74 44 -14 4 -31 12 -38 18 -7 5
-15 8 -17 5 -3 -3 31 -29 75 -58 l80 -53 -54 -41 c-29 -22 -81 -63 -115 -89
l-62 -49 -35 17 c-49 23 -99 12 -141 -30 -41 -41 -46 -100 -11 -152 38 -55 98
-67 162 -32 59 31 118 28 162 -10 19 -17 38 -31 42 -31 18 -1 32 -18 26 -33
-9 -25 -31 -21 -85 18 -27 19 -52 35 -56 35 -3 0 -15 7 -25 17 -10 9 -18 11
-18 5 0 -6 47 -47 104 -90 l103 -78 -112 -74 c-116 -77 -143 -102 -60 -55 26
14 49 24 52 21 3 -2 -5 -10 -17 -16 -47 -25 -139 -101 -145 -120 -4 -11 -3
-29 0 -41 12 -35 182 -286 200 -292 22 -9 63 11 185 92 58 39 109 70 113 71 4
0 3 -9 -3 -19 -15 -28 -13 -35 17 -65 14 -14 24 -28 22 -29 -2 -2 -16 -11 -31
-20 -32 -20 -36 -51 -12 -86 14 -20 23 -22 56 -18 34 5 46 1 85 -29 51 -39 92
-45 100 -14 9 33 23 12 23 -35 0 -32 6 -51 22 -68 28 -30 197 -137 216 -137
18 0 42 13 139 77 92 60 107 80 105 135 -2 38 11 51 22 23 9 -24 49 -18 94 14
22 16 43 34 47 40 4 8 12 8 25 1 28 -15 55 -12 73 8 25 27 21 55 -13 87 l-30
29 26 27 c30 31 26 61 -9 81 -44 25 -79 16 -174 -41 l-93 -56 0 -130 0 -130
-105 -69 -105 -69 -105 69 -105 69 0 130 0 130 -85 53 c-51 33 -99 55 -121 57
-19 2 -38 5 -40 8 -3 2 19 20 48 38 94 60 150 115 159 157 l6 27 14 -30 c14
-30 14 -30 17 30 3 60 3 61 45 83 23 12 44 22 47 22 11 0 -7 -116 -24 -154
-30 -68 -19 -139 33 -200 15 -18 14 -18 -19 1 -114 68 -144 84 -157 81 -12 -3
247 -191 281 -204 6 -2 79 43 161 100 l150 104 45 -25 45 -25 -29 25 c-16 14
-38 28 -49 31 -17 4 -88 -28 -182 -85 l-40 -24 27 33 c38 46 52 101 37 155 -6
23 -16 48 -22 56 -7 8 -14 58 -17 111 -5 91 -8 101 -41 151 l-36 54 34 31 33
31 31 -35 c57 -65 69 -104 69 -234 0 -104 9 -144 23 -105 3 7 9 2 15 -13 14
-37 95 -108 197 -175 50 -32 128 -83 175 -114 131 -86 146 -92 172 -80 37 17
208 273 208 311 0 15 -106 118 -123 118 -12 0 -52 40 -41 40 6 0 16 -6 23 -12
6 -7 15 -13 19 -13 4 -1 17 -6 30 -13 53 -30 14 1 -88 68 -60 40 -110 74 -110
75 0 1 48 37 107 81 116 85 127 117 12 35 -61 -43 -74 -48 -90 -38 -20 12 -26
37 -9 37 5 0 27 16 49 35 32 29 46 35 83 35 53 0 63 -10 71 -69 5 -43 4 -46
-44 -89 -63 -56 -63 -72 -1 -27 59 42 72 68 62 122 -7 41 -7 41 17 32 64 -24
129 3 159 66 22 47 12 95 -28 134 -35 34 -74 46 -119 36 -32 -7 -32 -7 -25 25
8 43 -30 110 -79 139 -20 12 -33 15 -29 9 23 -39 58 -78 75 -83 18 -6 19 -12
13 -53 -4 -26 -8 -49 -10 -50 -3 -4 -212 160 -213 168 -1 3 18 15 42 28 23 12
56 33 72 47 l30 25 -60 -26 c-33 -14 -69 -36 -81 -50 -11 -13 -29 -26 -41 -28
-33 -7 -100 -44 -137 -76 -18 -17 -38 -30 -43 -30 -5 0 -24 -15 -42 -34 l-33
-34 23 -12 c20 -11 20 -13 6 -22 -11 -5 -24 -5 -37 2 -16 9 -18 8 -14 -5 5
-11 -1 -15 -20 -15 -14 0 -26 -4 -26 -10 0 -6 39 -10 98 -10 l97 0 15 33 c32
69 120 96 190 59 40 -22 50 -42 21 -42 -11 0 -26 -9 -33 -19 -10 -14 -18 -17
-28 -10 -37 23 -82 -2 -82 -46 -1 -37 28 -58 68 -50 21 4 35 1 44 -10 7 -8 21
-15 31 -15 28 0 23 -13 -13 -35 -68 -40 -160 -14 -195 54 -10 20 -18 36 -18
36 0 0 -49 -2 -110 -5 -95 -5 -104 -7 -67 -14 23 -5 42 -12 42 -16 0 -5 9 -6
20 -3 23 6 28 -15 5 -24 -14 -5 -14 -8 1 -24 16 -17 15 -18 -7 -14 -12 3 -25
8 -28 12 -7 9 -37 27 -104 60 -50 26 -81 24 -92 -5 -3 -9 -3 -13 1 -10 9 10
44 -36 54 -70 8 -26 8 -25 9 10 1 27 -5 41 -21 52 -12 9 -19 18 -16 21 5 5
705 -450 732 -476 6 -6 -149 -263 -180 -298 -2 -2 -103 62 -224 142 l-220 147
0 55 c0 34 -4 55 -11 55 -8 0 -10 -17 -7 -49 l5 -50 -29 15 -28 15 0 110 c0
61 3 109 8 107 4 -2 51 -32 104 -66 l97 -63 -21 -35 -20 -34 -30 25 c-16 14
-34 22 -40 19 -6 -4 5 -16 23 -27 29 -17 180 -115 257 -165 22 -14 22 -14 9
14 -7 16 -20 43 -29 60 -17 31 -17 32 11 69 l28 38 -191 124 c-105 68 -208
142 -230 164 -21 22 -46 42 -56 44 -24 5 -70 35 -70 46 0 13 78 67 264 185 89
56 202 128 251 161 50 32 106 66 125 77 19 10 37 21 40 25 3 4 43 32 90 63
104 68 119 91 94 139 -43 84 -167 261 -190 271 -30 14 -63 -1 -200 -90 -87
-58 -90 -59 -86 -33 2 18 -3 33 -17 45 -28 25 -26 40 4 60 31 20 33 58 4 87
-17 17 -28 20 -56 14 -28 -5 -39 -2 -55 14 -32 35 -97 64 -113 51 -20 -17 -35
-3 -35 31 0 48 -15 65 -108 127 -110 73 -133 83 -158 70z m133 -95 l103 -68 0
-126 0 -125 83 -56 c102 -70 118 -78 148 -78 18 0 -1 -19 -54 -54 -29 -18 -74
-54 -102 -80 -27 -26 -51 -42 -53 -36 -10 29 -22 3 -22 -47 0 -58 0 -58 -42
-81 -23 -12 -42 -21 -44 -20 -1 2 -3 26 -5 53 -2 35 4 62 18 90 30 59 37 113
19 163 -8 23 -12 42 -8 42 4 0 23 -11 42 -24 42 -28 122 -67 127 -62 5 4 -48
43 -204 150 l-113 77 -142 -97 c-151 -103 -194 -134 -185 -134 14 0 101 42
134 65 21 14 41 25 45 25 4 0 1 -18 -7 -40 -16 -45 -8 -117 20 -169 9 -17 15
-56 15 -91 0 -62 18 -120 47 -152 16 -17 14 -20 -18 -47 l-34 -29 -29 26 c-47
44 -56 79 -56 219 -1 122 -2 127 -16 99 l-16 -29 -22 26 c-24 30 -119 103
-167 130 -36 20 -35 24 5 31 16 3 71 33 122 67 l94 62 0 126 0 126 103 67 c56
38 104 68 107 68 2 0 50 -30 107 -67z m-387 -227 l0 -94 -82 -55 c-80 -53 -83
-54 -108 -39 -36 23 -36 23 -20 32 13 7 150 107 158 115 2 2 -12 14 -32 27
l-36 25 58 40 c31 23 58 42 60 42 1 1 2 -41 2 -93z m645 -13 c-19 -13 -35 -25
-35 -27 0 -2 16 -13 35 -25 19 -11 35 -16 35 -11 0 4 -6 11 -12 14 -9 3 -8 8
5 16 9 6 26 20 36 31 24 26 55 21 59 -9 4 -27 -23 -40 -49 -24 -11 7 -20 8
-24 2 -3 -6 1 -10 9 -10 20 0 21 -19 1 -26 -24 -10 -18 -20 31 -51 l46 -30
-29 -20 -28 -20 -82 54 -83 54 0 94 0 94 60 -41 60 -41 -35 -24z m-799 0 c9
-13 9 -22 2 -30 -14 -18 -47 -16 -54 2 -15 39 27 62 52 28z m43 -32 c12 -8 12
-12 -2 -25 -8 -9 -23 -13 -31 -10 -19 7 -20 11 -3 29 14 17 18 17 36 6z m89
-336 l32 -19 0 -104 c0 -57 -4 -102 -8 -100 -28 12 -192 122 -192 130 0 5 7
20 16 33 l16 25 24 -25 c13 -14 31 -25 41 -25 15 0 15 2 3 13 -21 19 -286 187
-295 187 -4 0 7 -24 23 -53 l30 -53 -30 -39 c-26 -35 -27 -41 -13 -50 9 -5
120 -77 246 -159 l230 -149 -22 -23 c-24 -25 -40 -25 -20 0 14 17 6 40 -10 30
-6 -3 -9 -20 -7 -38 2 -17 -1 -32 -7 -33 -7 -2 -661 418 -724 463 -2 2 40 70
93 152 l96 149 222 -147 c123 -80 238 -155 256 -165z m1178 160 c53 -82 92
-151 88 -152 -5 -2 -146 -93 -314 -202 -168 -110 -370 -241 -449 -292 -169
-110 -247 -184 -292 -274 -24 -50 -41 -70 -75 -90 -23 -14 -44 -25 -47 -25 -2
0 0 25 4 56 12 91 52 159 149 254 85 84 139 121 647 444 l83 53 -29 38 -29 39
30 53 c16 29 27 53 23 53 -9 0 -274 -168 -295 -187 -12 -11 -12 -13 3 -13 10
0 29 12 42 26 l24 26 16 -32 c9 -18 15 -33 13 -35 -8 -8 -189 -125 -193 -125
-3 0 -5 47 -5 105 l0 105 38 20 c44 24 439 283 455 299 6 6 12 9 14 8 1 -2 46
-70 99 -152z m-800 30 c35 -23 64 -74 64 -113 0 -53 -29 -100 -86 -143 l-54
-40 -50 38 c-113 84 -117 209 -9 266 39 21 96 18 135 -8z m-608 -202 c36 -23
43 -34 37 -58 -2 -12 2 -33 10 -48 7 -15 12 -27 10 -27 -16 0 -125 74 -125 85
0 24 19 65 30 65 6 0 23 -8 38 -17z m1122 -14 c15 -36 13 -40 -75 -95 -42 -26
-54 -31 -40 -15 12 14 18 34 17 56 -2 27 4 38 30 59 43 33 53 33 68 -5z m-501
-112 c2 -45 2 -45 -57 -81 -33 -20 -64 -36 -69 -36 -17 0 -43 70 -43 115 0 50
4 52 53 29 31 -15 35 -15 67 5 18 11 36 18 40 16 3 -2 7 -24 9 -48z m122 -74
l-3 -58 -91 -55 c-107 -65 -236 -186 -295 -279 -37 -57 -112 -121 -142 -121
-13 0 -13 -2 10 64 35 103 142 241 260 338 42 34 249 168 260 168 3 0 3 -26 1
-57z m-481 -23 c17 9 22 5 41 -32 12 -24 33 -56 48 -73 26 -30 26 -30 1 -10
-14 11 -62 45 -107 75 -89 59 -107 80 -43 49 31 -15 45 -17 60 -9z m600 -6 c0
-4 -85 -54 -93 -54 -3 0 -1 12 5 28 9 23 17 28 49 28 22 1 39 0 39 -2z m-887
-150 l-25 -21 -56 34 c-32 18 -67 36 -79 39 -31 8 -29 15 9 40 l32 21 73 -46
72 -46 -26 -21z m1286 69 c1 -1 -26 -16 -60 -33 -35 -18 -72 -39 -81 -48 -16
-14 -20 -13 -38 3 -11 10 -19 22 -18 26 2 5 34 28 73 53 l70 45 25 -22 c14
-12 27 -23 29 -24z m-1481 -29 c-2 -9 -12 -22 -22 -28 -11 -6 -32 -23 -47 -38
-27 -26 -58 -36 -72 -22 -8 8 112 102 131 103 8 1 12 -6 10 -15z m1581 -31
c33 -26 57 -51 55 -55 -11 -17 -53 -7 -80 20 -16 15 -40 34 -53 43 -25 16 -22
39 4 39 8 0 41 -21 74 -47z m-1299 -35 c0 -3 -15 -18 -32 -32 -30 -24 -34 -24
-46 -9 -10 14 -8 21 14 44 22 23 29 26 45 16 11 -7 19 -15 19 -19z m1007 -39
c-12 -19 -15 -18 -60 15 l-28 20 23 18 c22 16 24 16 50 -9 22 -21 25 -29 15
-44z m-1512 -9 c15 -17 31 -20 103 -20 65 0 90 -4 104 -17 22 -20 23 -31 1
-55 -13 -15 -31 -18 -96 -18 -70 0 -83 -3 -109 -25 -40 -34 -82 -33 -119 4
-38 39 -40 88 -3 125 34 33 92 36 119 6z m2043 4 c52 -36 48 -120 -8 -149 -41
-21 -64 -19 -98 10 -26 22 -39 25 -105 25 -86 0 -103 5 -118 31 -7 14 -5 23
11 39 17 17 33 20 101 20 66 0 86 4 106 20 31 24 80 26 111 4z m-1560 -152
l34 -28 -25 -11 c-21 -10 -28 -8 -47 12 -13 14 -20 31 -17 39 9 22 17 20 55
-12z m1026 11 c4 -11 -2 -25 -16 -40 -22 -21 -25 -22 -43 -8 -20 15 -19 15 8
40 33 29 43 31 51 8z m-878 -148 c-2 -7 -76 -59 -165 -115 l-160 -103 29 -41
28 -42 -25 -42 c-14 -23 -23 -46 -21 -51 1 -6 48 19 103 55 55 36 121 77 148
91 26 14 47 30 47 35 0 15 -18 8 -48 -17 l-30 -25 -20 34 -20 34 99 66 c54 36
101 66 104 66 3 0 5 -49 5 -110 l0 -109 -28 -15 -29 -15 5 50 c3 32 1 49 -7
49 -7 0 -11 -21 -11 -55 l0 -56 -221 -145 c-122 -80 -222 -144 -224 -142 -2 2
-46 69 -97 149 l-94 145 315 210 316 211 3 -50 c2 -27 1 -55 -2 -62z m-206 87
l23 -18 -76 -47 c-41 -26 -79 -47 -83 -47 -16 1 -59 43 -49 47 6 2 42 21 80
42 39 21 73 39 76 40 4 0 17 -7 29 -17z m1200 -28 l82 -46 -28 -23 -28 -22
-78 50 c-73 48 -77 52 -61 69 9 10 19 18 23 18 5 0 45 -21 90 -46z m-564 -174
c2 -33 2 -60 -2 -60 -3 0 -24 10 -46 22 l-40 23 -38 -23 c-22 -12 -41 -22 -43
-22 -2 0 -7 18 -10 40 -6 45 19 102 75 173 l31 38 34 -66 c23 -45 35 -85 39
-125z m-316 109 c-9 -33 -13 -35 -49 -34 -37 0 -39 1 -27 19 11 18 76 59 83
53 1 -2 -2 -19 -7 -38z m525 -19 c3 -8 3 -11 -1 -7 -4 4 -13 2 -21 -5 -18 -14
-29 -2 -37 40 l-6 33 29 -23 c16 -13 32 -30 36 -38z m-795 -161 c0 -11 5 -29
10 -39 9 -17 4 -24 -37 -49 l-48 -30 -12 22 c-22 40 -15 61 30 89 51 33 57 34
57 7z m555 -18 c80 -61 103 -126 68 -198 -22 -46 -67 -73 -123 -73 -56 0 -101
27 -123 73 -21 44 -21 72 1 120 13 30 103 116 121 117 2 0 28 -18 56 -39z
m518 -3 c31 -22 34 -47 9 -78 -17 -21 -18 -21 -39 -3 -12 10 -29 23 -38 28
-13 8 -15 19 -9 52 7 47 11 47 77 1z m-853 -454 c0 -52 -2 -94 -5 -94 -3 0
-23 13 -46 29 -22 17 -46 32 -52 35 -7 3 1 16 21 33 l34 29 -86 61 -86 61 32
19 33 19 77 -49 78 -50 0 -93z m764 141 c-16 -10 -146 -104 -152 -110 -2 -2
13 -14 33 -28 l36 -24 -34 -20 c-19 -11 -46 -28 -60 -38 l-27 -17 0 95 0 94
78 50 77 49 33 -20 c28 -18 30 -22 16 -31z m-424 14 c0 -4 -12 -14 -26 -24
-22 -14 -31 -15 -55 -5 -57 24 -51 35 17 35 35 0 64 -3 64 -6z m363 -117 c-7
-18 -10 -19 -27 -6 -20 14 -20 14 0 28 23 18 37 7 27 -22z m-809 19 c18 -7 18
-8 -4 -24 -19 -13 -26 -14 -32 -4 -20 32 -5 44 36 28z m-50 -33 c13 -22 -14
-54 -38 -45 -16 6 -22 48 -9 61 11 11 35 3 47 -16z m914 13 c20 -12 11 -56
-12 -56 -23 0 -41 27 -33 49 7 18 24 20 45 7z"/>
<path d="M1349 2568 c-1 -2 -3 -49 -6 -104 -3 -67 -1 -104 6 -109 8 -4 11 28
11 104 0 61 -2 111 -5 111 -3 0 -5 -1 -6 -2z"/>
<path d="M1426 2554 c-19 -18 -21 -55 -4 -72 7 -7 24 -12 38 -12 34 0 50 17
50 52 0 43 -53 64 -84 32z"/>
<path d="M1560 2456 c0 -85 3 -115 11 -110 8 5 10 35 7 95 -3 48 -1 92 4 97 5
5 3 14 -7 22 -13 11 -15 0 -15 -104z"/>
<path d="M1131 2466 c-12 -14 -5 -26 16 -26 15 0 18 26 4 34 -5 3 -14 0 -20
-8z"/>
<path d="M694 2266 c-10 -26 4 -48 28 -44 17 2 23 10 23 28 0 18 -6 26 -23 28
-13 2 -25 -3 -28 -12z"/>
<path d="M689 2147 c-27 -14 -38 -60 -18 -83 17 -20 63 -17 84 6 35 39 -17
101 -66 77z"/>
<path d="M1119 2022 c-2 -30 -1 -56 3 -58 12 -8 21 66 11 89 -9 19 -11 14 -14
-31z"/>
<path d="M2174 2266 c-10 -26 4 -48 28 -44 17 2 23 10 23 28 0 18 -6 26 -23
28 -13 2 -25 -3 -28 -12z"/>
<path d="M2189 2147 c-27 -14 -38 -60 -18 -83 34 -41 115 8 89 55 -16 32 -42
42 -71 28z"/>
<path d="M1786 2048 c-9 -30 -1 -78 12 -78 4 0 6 17 4 38 -5 61 -8 68 -16 40z"/>
<path d="M1420 2170 c-26 -26 -25 -54 2 -80 26 -24 64 -20 86 7 44 58 -36 125
-88 73z m60 -35 c0 -16 -27 -32 -37 -22 -3 4 -3 13 0 22 8 20 37 20 37 0z"/>
<path d="M402 1583 c-7 -3 -18 -16 -23 -30 -13 -34 12 -73 46 -73 28 0 65 32
65 55 0 36 -51 63 -88 48z"/>
<path d="M2442 1574 c-41 -28 -16 -94 36 -94 47 0 69 61 34 93 -23 21 -41 21
-70 1z"/>
<path d="M672 1028 c-21 -21 -14 -66 13 -84 23 -15 27 -15 51 0 34 23 39 41
20 71 -18 27 -63 34 -84 13z"/>
<path d="M694 846 c-10 -26 4 -48 28 -44 17 2 23 10 23 28 0 18 -6 26 -23 28
-13 2 -25 -3 -28 -12z"/>
<path d="M1417 1012 c-22 -24 -21 -55 1 -75 38 -35 102 -9 102 41 0 48 -70 71
-103 34z m63 -37 c0 -19 -13 -25 -29 -15 -19 11 -6 41 14 34 8 -3 15 -12 15
-19z"/>
<path d="M600 1830 c-48 -38 -91 -85 -96 -107 -3 -12 -1 -35 4 -50 10 -26 10
-25 11 18 1 38 5 48 25 59 20 10 96 101 84 100 -2 -1 -14 -10 -28 -20z"/>
<path d="M2314 1729 c-10 -17 13 -36 27 -22 12 12 4 33 -11 33 -5 0 -12 -5
-16 -11z"/>
<path d="M507 1381 c-9 -54 4 -76 68 -120 l47 -31 -22 29 c-11 17 -33 40 -48
51 -20 16 -28 33 -32 68 l-5 47 -8 -44z"/>
<path d="M572 1343 c5 -25 28 -28 28 -4 0 12 -6 21 -16 21 -9 0 -14 -7 -12
-17z"/>
<path d="M2314 1349 c-10 -17 13 -36 27 -22 12 12 4 33 -11 33 -5 0 -12 -5
-16 -11z"/>
<path d="M2172 1028 c-21 -21 -14 -66 12 -83 28 -19 58 -9 76 26 25 45 -51 94
-88 57z"/>
<path d="M1112 919 c-18 -12 -31 -24 -28 -26 6 -7 66 29 66 39 0 11 0 11 -38
-13z"/>
<path d="M2174 846 c-10 -26 4 -48 28 -44 17 2 23 10 23 28 0 18 -6 26 -23 28
-13 2 -25 -3 -28 -12z"/>
<path d="M1339 743 c-4 -54 3 -182 11 -208 6 -17 26 -40 46 -53 50 -32 53 -21
4 13 l-40 28 0 118 c0 73 -4 119 -10 119 -5 0 -11 -8 -11 -17z"/>
<path d="M1560 641 l0 -118 -40 -28 c-52 -36 -45 -45 8 -10 46 30 50 43 52
140 2 112 1 135 -10 135 -6 0 -10 -46 -10 -119z"/>
<path d="M1422 628 c-22 -22 -14 -67 13 -80 37 -17 75 3 75 40 0 35 -16 52
-50 52 -14 0 -31 -5 -38 -12z"/>
</g>
</svg>
