<?xml version="1.0" standalone="no"?>
<!DOCTYPE svg PUBLIC "-//W3C//DTD SVG 20010904//EN"
 "http://www.w3.org/TR/2001/REC-SVG-20010904/DTD/svg10.dtd">
<svg version="1.0" xmlns="http://www.w3.org/2000/svg"
 width="1024.000000pt" height="1024.000000pt" viewBox="0 0 1024.000000 1024.000000"
 preserveAspectRatio="xMidYMid meet">

<g transform="translate(0.000000,1024.000000) scale(0.100000,-0.100000)"
fill="#000000" stroke="none">
<path d="M4960 8450 c-346 -32 -689 -172 -955 -390 -274 -225 -442 -464 -549
-780 -74 -221 -86 -339 -80 -789 4 -382 -9 -333 119 -442 44 -37 285 -270 535
-518 l455 -451 100 107 c129 139 231 241 276 278 l36 30 -224 215 c-123 118
-324 314 -448 435 l-225 220 9 280 c8 250 12 290 35 379 76 295 242 505 524
667 182 104 348 144 567 136 294 -11 522 -110 723 -315 104 -106 175 -210 225
-330 70 -170 79 -230 84 -554 4 -223 2 -288 -7 -288 -7 0 -105 -91 -219 -203
-113 -111 -316 -306 -451 -432 -135 -127 -324 -307 -420 -400 -283 -275 -500
-479 -570 -534 -58 -47 -634 -594 -1100 -1046 -96 -93 -220 -214 -276 -268
-56 -54 -107 -109 -114 -122 -11 -21 -5 -35 69 -159 45 -74 118 -182 163 -240
l82 -105 34 42 c45 55 728 733 947 941 93 89 244 234 335 322 91 89 203 194
250 234 47 39 173 156 280 259 107 103 220 209 250 236 30 26 94 84 141 129
47 45 115 108 151 141 153 141 412 388 678 646 157 152 313 300 348 330 l62
54 6 376 c8 479 -5 591 -96 821 -160 405 -508 769 -895 936 -274 119 -595 176
-855 152z"/>
<path d="M4910 6644 c-109 -14 -249 -38 -350 -60 -116 -26 -299 -80 -312 -93
-4 -4 108 -118 250 -253 141 -136 332 -320 424 -410 l167 -163 48 54 c59 65
269 271 508 499 99 94 197 191 217 216 21 24 48 48 60 52 19 6 15 9 -28 26
-42 16 -230 73 -304 92 -110 28 -563 55 -680 40z"/>
<path d="M6745 5766 c-77 -78 -296 -296 -486 -484 l-346 -343 441 -437 c243
-240 511 -509 596 -597 193 -199 341 -347 344 -343 26 35 84 289 112 498 28
201 24 503 -9 705 -25 156 -70 329 -123 476 -34 93 -150 326 -221 444 -60 98
-152 226 -162 224 -3 -1 -69 -65 -146 -143z m67 -696 c54 -47 72 -87 65 -139
-14 -107 -140 -170 -241 -121 -93 45 -119 137 -61 220 40 58 78 80 141 80 45
0 56 -4 96 -40z"/>
<path d="M3257 5855 c-14 -22 -54 -80 -87 -130 -149 -219 -306 -606 -356 -875
-13 -74 -27 -142 -29 -151 -15 -46 -22 -311 -13 -469 9 -171 56 -479 93 -606
l15 -52 282 282 c430 427 1067 1050 1086 1060 9 5 18 10 20 12 2 1 -52 55
-120 120 -68 64 -229 223 -359 353 -129 130 -296 295 -370 366 l-136 130 -26
-40z m300 -760 c51 -30 73 -68 73 -125 0 -61 -27 -108 -79 -141 -52 -33 -90
-36 -146 -10 -85 38 -121 116 -91 195 38 99 149 136 243 81z"/>
<path d="M5519 4599 c-101 -103 -193 -192 -204 -197 -18 -10 10 -40 270 -293
438 -427 1168 -1157 1222 -1221 l47 -56 18 28 c9 16 59 78 110 137 52 59 124
149 161 200 l67 92 -573 568 c-314 312 -654 649 -753 748 l-182 180 -183 -186z"/>
<path d="M5046 4002 c-100 -8 -226 -221 -226 -382 0 -91 73 -195 142 -207 l41
-6 -8 -136 c-3 -75 -15 -203 -26 -286 -10 -82 -19 -180 -19 -217 l0 -68 145 0
145 0 0 73 c0 39 -7 135 -15 212 -8 77 -15 204 -15 282 l0 142 43 12 c61 16
99 49 138 121 30 57 34 71 33 138 -1 69 -4 81 -44 153 -56 104 -82 132 -133
151 -43 15 -133 23 -201 18z"/>
<path d="M4265 3418 c-170 -166 -391 -382 -490 -479 -100 -97 -199 -193 -222
-212 l-42 -35 22 -19 c43 -39 266 -193 384 -267 243 -151 551 -273 805 -321
216 -40 567 -37 783 6 205 41 424 114 601 200 143 69 571 360 573 390 1 3 -25
24 -57 46 -31 23 -124 111 -206 198 -82 86 -179 184 -215 218 -36 33 -142 137
-236 231 -93 94 -198 195 -231 223 l-61 53 -7 -46 c-13 -94 -123 -276 -203
-334 -20 -14 -21 -20 -12 -150 12 -173 40 -409 64 -533 l8 -39 -424 7 c-233 4
-425 8 -426 9 -3 2 44 332 71 496 33 199 33 203 -5 231 -42 30 -103 126 -129
204 -12 35 -24 100 -28 145 l-7 81 -310 -303z"/>
</g>
</svg>
